solid AssimpScene
 facet normal 0 -0.382680297 -0.923880816
  outer loop
  vertex 394.076691 10 -74.125
  vertex 385 10 -74.125
  vertex 394.332977 10.6187181 -74.381279
  endloop
 endfacet

 facet normal 0 -0.382680297 -0.923880816
  outer loop
  vertex 385 10.6187181 -74.381279
  vertex 394.332977 10.6187181 -74.381279
  vertex 385 10 -74.125
  endloop
 endfacet

 facet normal 1 0 0
  outer loop
  vertex 385 10.6187181 -75.618721
  vertex 385 9.125 -75
  vertex 385 9.38128185 -75.618721
  endloop
 endfacet

 facet normal 1 0 0
  outer loop
  vertex 385 10.6187181 -75.618721
  vertex 385 9.38128185 -75.618721
  vertex 385 10 -75.875
  endloop
 endfacet

 facet normal 4.62523908e-11 0.382680297 0.923880816
  outer loop
  vertex 385 10 -75.875
  vertex 385 9.38128185 -75.618721
  vertex 395.570404 9.38128185 -75.618721
  endloop
 endfacet

 facet normal 0 0.923879981 0.382682443
  outer loop
  vertex 395.570404 9.38128185 -75.618721
  vertex 385 9.38128185 -75.618721
  vertex 394.951691 9.125 -75
  endloop
 endfacet

 facet normal -4.51575166e-11 -0.382680297 0.923880816
  outer loop
  vertex 385 10.6187181 -75.618721
  vertex 385 10 -75.875
  vertex 395.826691 10 -75.875
  endloop
 endfacet

 facet normal 0 0.382680297 0.923880816
  outer loop
  vertex 395.826691 10 -75.875
  vertex 385 10 -75.875
  vertex 395.570404 9.38128185 -75.618721
  endloop
 endfacet

 facet normal 0 -0.382680297 0.923880816
  outer loop
  vertex 395.570404 10.6187181 -75.618721
  vertex 385 10.6187181 -75.618721
  vertex 395.826691 10 -75.875
  endloop
 endfacet

 facet normal 1 0 0
  outer loop
  vertex 385 10 -74.125
  vertex 385 9.38128185 -74.381279
  vertex 385 10.6187181 -74.381279
  endloop
 endfacet

 facet normal 1 0 0
  outer loop
  vertex 385 9.38128185 -74.381279
  vertex 385 10.875 -75
  vertex 385 10.6187181 -74.381279
  endloop
 endfacet

 facet normal 0 0.382680297 -0.923880816
  outer loop
  vertex 385 10 -74.125
  vertex 394.076691 10 -74.125
  vertex 385 9.38128185 -74.381279
  endloop
 endfacet

 facet normal 0 -0.923879981 -0.382682413
  outer loop
  vertex 385 10.875 -75
  vertex 394.951691 10.875 -75
  vertex 385 10.6187181 -74.381279
  endloop
 endfacet

 facet normal 0 -0.923879981 0.382682413
  outer loop
  vertex 394.951691 10.875 -75
  vertex 385 10.875 -75
  vertex 395.570404 10.6187181 -75.618721
  endloop
 endfacet

 facet normal 0 0.923879981 0.382682413
  outer loop
  vertex 385 9.125 -75
  vertex 394.951691 9.125 -75
  vertex 385 9.38128185 -75.618721
  endloop
 endfacet

 facet normal 1 0 0
  outer loop
  vertex 385 10.875 -75
  vertex 385 9.125 -75
  vertex 385 10.6187181 -75.618721
  endloop
 endfacet

 facet normal 1 0 0
  outer loop
  vertex 385 9.125 -75
  vertex 385 10.875 -75
  vertex 385 9.38128185 -74.381279
  endloop
 endfacet

 facet normal 0 -0.923879981 -0.382682443
  outer loop
  vertex 375 -9.125 -75
  vertex 394.951691 -9.125 -75
  vertex 375 -9.38128185 -74.381279
  endloop
 endfacet

 facet normal 0 0.923879981 -0.382682443
  outer loop
  vertex 375 -10.6187181 -74.381279
  vertex 394.332977 -10.6187181 -74.381279
  vertex 375 -10.875 -75
  endloop
 endfacet

 facet normal -2.5628475e-11 0.382680297 -0.923880875
  outer loop
  vertex 375 -10.6187181 -74.381279
  vertex 375 -10 -74.125
  vertex 394.076691 -10 -74.125
  endloop
 endfacet

 facet normal 1 0 0
  outer loop
  vertex 375 -10.6187181 -74.381279
  vertex 375 -9.125 -75
  vertex 375 -9.38128185 -74.381279
  endloop
 endfacet

 facet normal 1 0 0
  outer loop
  vertex 375 -10.6187181 -74.381279
  vertex 375 -9.38128185 -74.381279
  vertex 375 -10 -74.125
  endloop
 endfacet

 facet normal 1 0 0
  outer loop
  vertex 375 -9.125 -75
  vertex 375 -10.875 -75
  vertex 375 -9.38128185 -75.618721
  endloop
 endfacet

 facet normal 1 0 0
  outer loop
  vertex 375 -10.875 -75
  vertex 375 -9.125 -75
  vertex 375 -10.6187181 -74.381279
  endloop
 endfacet

 facet normal -2.44453242e-11 -0.382680327 0.923880816
  outer loop
  vertex 375 -9.38128185 -75.618721
  vertex 375 -10 -75.875
  vertex 395 -10 -75.875
  endloop
 endfacet

 facet normal 2.44453242e-11 0.382680327 0.923880816
  outer loop
  vertex 375 -10 -75.875
  vertex 375 -10.6187181 -75.618721
  vertex 395 -10.6187181 -75.618721
  endloop
 endfacet

 facet normal 1 0 0
  outer loop
  vertex 375 -9.38128185 -75.618721
  vertex 375 -10.875 -75
  vertex 375 -10.6187181 -75.618721
  endloop
 endfacet

 facet normal 1.29100581e-05 0.923879564 0.382683337
  outer loop
  vertex 395 -10.8549871 -75.048317
  vertex 395 -10.6187181 -75.618721
  vertex 394.951691 -10.875 -75
  endloop
 endfacet

 facet normal 0 -0.382680297 -0.923880875
  outer loop
  vertex 394.076691 -10 -74.125
  vertex 375 -10 -74.125
  vertex 394.332977 -9.38128185 -74.381279
  endloop
 endfacet

 facet normal 0 -0.382680327 -0.923880816
  outer loop
  vertex 375 -9.38128185 -74.381279
  vertex 394.332977 -9.38128185 -74.381279
  vertex 375 -10 -74.125
  endloop
 endfacet

 facet normal 0 0.382680327 0.923880816
  outer loop
  vertex 395 -10 -75.875
  vertex 375 -10 -75.875
  vertex 395 -10.6187181 -75.618721
  endloop
 endfacet

 facet normal 0 0.923879981 0.382682443
  outer loop
  vertex 395 -10.6187181 -75.618721
  vertex 375 -10.6187181 -75.618721
  vertex 394.951691 -10.875 -75
  endloop
 endfacet

 facet normal 0 -0.382680327 0.923880816
  outer loop
  vertex 395 -9.38128185 -75.618721
  vertex 375 -9.38128185 -75.618721
  vertex 395 -10 -75.875
  endloop
 endfacet

 facet normal 1.28995689e-05 -0.923879564 0.382683337
  outer loop
  vertex 394.951691 -9.125 -75
  vertex 395 -9.38128185 -75.618721
  vertex 395 -9.14501286 -75.048317
  endloop
 endfacet

 facet normal -1 0 0
  outer loop
  vertex 395 -9.38128185 -75.618721
  vertex 395 -10 -75.875
  vertex 395 -10.6187181 -75.618721
  endloop
 endfacet

 facet normal 0 0.382680327 -0.923880816
  outer loop
  vertex 394.332977 -10.6187181 -74.381279
  vertex 375 -10.6187181 -74.381279
  vertex 394.076691 -10 -74.125
  endloop
 endfacet

 facet normal 0 -0.923879981 0.382682443
  outer loop
  vertex 394.951691 -9.125 -75
  vertex 375 -9.125 -75
  vertex 395 -9.38128185 -75.618721
  endloop
 endfacet

 facet normal 1 0 0
  outer loop
  vertex 375 -10 -75.875
  vertex 375 -9.38128185 -75.618721
  vertex 375 -10.6187181 -75.618721
  endloop
 endfacet

 facet normal -1 0 0
  outer loop
  vertex 288 9.125 -75
  vertex 288 10.6187181 -75.618721
  vertex 288 9.38128185 -75.618721
  endloop
 endfacet

 facet normal -1 0 0
  outer loop
  vertex 288 10 -74.125
  vertex 288 10.6187181 -74.381279
  vertex 288 9.38128185 -74.381279
  endloop
 endfacet

 facet normal 4.85732773e-11 0.382680327 0.923880816
  outer loop
  vertex 277.678406 10 -75.875
  vertex 277.934662 9.38128185 -75.618721
  vertex 288 9.38128185 -75.618721
  endloop
 endfacet

 facet normal 0 -0.923879981 0.382682443
  outer loop
  vertex 277.934662 10.6187181 -75.618721
  vertex 288 10.6187181 -75.618721
  vertex 278.553406 10.875 -75
  endloop
 endfacet

 facet normal -4.73673427e-11 -0.382680297 0.923880816
  outer loop
  vertex 277.934662 10.6187181 -75.618721
  vertex 277.678406 10 -75.875
  vertex 288 10 -75.875
  endloop
 endfacet

 facet normal 0 0.382680357 0.923880816
  outer loop
  vertex 288 10 -75.875
  vertex 277.678406 10 -75.875
  vertex 288 9.38128185 -75.618721
  endloop
 endfacet

 facet normal 0 0.923879981 0.382682443
  outer loop
  vertex 277.934662 9.38128185 -75.618721
  vertex 288 9.125 -75
  vertex 288 9.38128185 -75.618721
  endloop
 endfacet

 facet normal -1 0 0
  outer loop
  vertex 288 10 -75.875
  vertex 288 9.38128185 -75.618721
  vertex 288 10.6187181 -75.618721
  endloop
 endfacet

 facet normal 0 0.923879981 0.382682502
  outer loop
  vertex 278.553406 9.125 -75
  vertex 288 9.125 -75
  vertex 277.934662 9.38128185 -75.618721
  endloop
 endfacet

 facet normal 0 -0.923879981 0.382682502
  outer loop
  vertex 288 10.875 -75
  vertex 278.553406 10.875 -75
  vertex 288 10.6187181 -75.618721
  endloop
 endfacet

 facet normal -1 0 0
  outer loop
  vertex 288 9.38128185 -74.381279
  vertex 288 10.875 -75
  vertex 288 9.125 -75
  endloop
 endfacet

 facet normal -1 0 0
  outer loop
  vertex 288 10.6187181 -75.618721
  vertex 288 9.125 -75
  vertex 288 10.875 -75
  endloop
 endfacet

 facet normal 0 0.382680357 -0.923880875
  outer loop
  vertex 288 9.38128185 -74.381279
  vertex 279.172119 9.38128185 -74.381279
  vertex 288 10 -74.125
  endloop
 endfacet

 facet normal 0 0.382680297 -0.923880875
  outer loop
  vertex 279.428406 10 -74.125
  vertex 288 10 -74.125
  vertex 279.172119 9.38128185 -74.381279
  endloop
 endfacet

 facet normal 0 -0.382680357 -0.923880875
  outer loop
  vertex 279.172119 10.6187181 -74.381279
  vertex 288 10.6187181 -74.381279
  vertex 279.428406 10 -74.125
  endloop
 endfacet

 facet normal 0 -0.382680297 -0.923880875
  outer loop
  vertex 288 10 -74.125
  vertex 279.428406 10 -74.125
  vertex 288 10.6187181 -74.381279
  endloop
 endfacet

 facet normal 0 -0.382680327 0.923880816
  outer loop
  vertex 288 10.6187181 -75.618721
  vertex 277.934662 10.6187181 -75.618721
  vertex 288 10 -75.875
  endloop
 endfacet

 facet normal -1 0 0
  outer loop
  vertex 288 10.875 -75
  vertex 288 9.38128185 -74.381279
  vertex 288 10.6187181 -74.381279
  endloop
 endfacet

 facet normal 5.53820843e-11 -0.382680297 -0.923880875
  outer loop
  vertex 279.428406 -10 -74.125
  vertex 279.172119 -9.38128185 -74.381279
  vertex 288 -9.38128185 -74.381279
  endloop
 endfacet

 facet normal 0 -0.923879981 0.382682502
  outer loop
  vertex 288 -9.125 -75
  vertex 278.553406 -9.125 -75
  vertex 288 -9.38128185 -75.618721
  endloop
 endfacet

 facet normal -1 0 0
  outer loop
  vertex 288 -10.875 -75
  vertex 288 -9.38128185 -75.618721
  vertex 288 -10.6187181 -75.618721
  endloop
 endfacet

 facet normal -1 0 0
  outer loop
  vertex 288 -9.38128185 -75.618721
  vertex 288 -10 -75.875
  vertex 288 -10.6187181 -75.618721
  endloop
 endfacet

 facet normal 0 0.382680297 -0.923880875
  outer loop
  vertex 279.428406 -10 -74.125
  vertex 288 -10 -74.125
  vertex 279.172119 -10.6187181 -74.381279
  endloop
 endfacet

 facet normal 0 -0.382680327 0.923880816
  outer loop
  vertex 288 -9.38128185 -75.618721
  vertex 277.934662 -9.38128185 -75.618721
  vertex 288 -10 -75.875
  endloop
 endfacet

 facet normal 0 -0.923879981 0.382682443
  outer loop
  vertex 277.934662 -9.38128185 -75.618721
  vertex 288 -9.38128185 -75.618721
  vertex 278.553406 -9.125 -75
  endloop
 endfacet

 facet normal 0 0.382680357 -0.923880875
  outer loop
  vertex 288 -10.6187181 -74.381279
  vertex 279.172119 -10.6187181 -74.381279
  vertex 288 -10 -74.125
  endloop
 endfacet

 facet normal 0 -0.382680297 -0.923880875
  outer loop
  vertex 288 -10 -74.125
  vertex 279.428406 -10 -74.125
  vertex 288 -9.38128185 -74.381279
  endloop
 endfacet

 facet normal -1 0 0
  outer loop
  vertex 288 -10.6187181 -74.381279
  vertex 288 -10 -74.125
  vertex 288 -9.38128185 -74.381279
  endloop
 endfacet

 facet normal 0 0.382680357 0.923880816
  outer loop
  vertex 288 -10 -75.875
  vertex 277.678406 -10 -75.875
  vertex 288 -10.6187181 -75.618721
  endloop
 endfacet

 facet normal -1 0 0
  outer loop
  vertex 288 -9.125 -75
  vertex 288 -10.6187181 -74.381279
  vertex 288 -9.38128185 -74.381279
  endloop
 endfacet

 facet normal -4.73673427e-11 -0.382680297 0.923880816
  outer loop
  vertex 277.934662 -9.38128185 -75.618721
  vertex 277.678406 -10 -75.875
  vertex 288 -10 -75.875
  endloop
 endfacet

 facet normal -1 0 0
  outer loop
  vertex 288 -9.38128185 -75.618721
  vertex 288 -10.875 -75
  vertex 288 -9.125 -75
  endloop
 endfacet

 facet normal 0 0.382680327 0.923880816
  outer loop
  vertex 277.934662 -10.6187181 -75.618721
  vertex 288 -10.6187181 -75.618721
  vertex 277.678406 -10 -75.875
  endloop
 endfacet

 facet normal 0 0.923879981 -0.382682502
  outer loop
  vertex 288 -10.875 -75
  vertex 278.553406 -10.875 -75
  vertex 288 -10.6187181 -74.381279
  endloop
 endfacet

 facet normal -1 0 0
  outer loop
  vertex 288 -10.6187181 -74.381279
  vertex 288 -9.125 -75
  vertex 288 -10.875 -75
  endloop
 endfacet

 facet normal 0 0.923879981 0.382682502
  outer loop
  vertex 278.553406 -10.875 -75
  vertex 288 -10.875 -75
  vertex 277.934662 -10.6187181 -75.618721
  endloop
 endfacet

 facet normal 0 0.923879981 -0.382682413
  outer loop
  vertex 394.951691 9.125 -75
  vertex 385 9.125 -75
  vertex 394.332977 9.38128185 -74.381279
  endloop
 endfacet

 facet normal 0 -0.923879981 0.382682443
  outer loop
  vertex 385 10.6187181 -75.618721
  vertex 395.570404 10.6187181 -75.618721
  vertex 385 10.875 -75
  endloop
 endfacet

 facet normal 0 -0.923879981 -0.382682443
  outer loop
  vertex 394.332977 10.6187181 -74.381279
  vertex 385 10.6187181 -74.381279
  vertex 394.951691 10.875 -75
  endloop
 endfacet

 facet normal 0 0.382680297 -0.923880816
  outer loop
  vertex 394.332977 9.38128185 -74.381279
  vertex 385 9.38128185 -74.381279
  vertex 394.076691 10 -74.125
  endloop
 endfacet

 facet normal 0 0.923879981 -0.382682443
  outer loop
  vertex 385 9.38128185 -74.381279
  vertex 394.332977 9.38128185 -74.381279
  vertex 385 9.125 -75
  endloop
 endfacet

 facet normal 0 -0.923879981 -0.382682443
  outer loop
  vertex 394.332977 -9.38128185 -74.381279
  vertex 375 -9.38128185 -74.381279
  vertex 394.951691 -9.125 -75
  endloop
 endfacet

 facet normal -1 0 0
  outer loop
  vertex 395 -9.38128185 -75.618721
  vertex 395 -10.8549871 -75.048317
  vertex 395 -9.14501286 -75.048317
  endloop
 endfacet

 facet normal -1 0 0
  outer loop
  vertex 395 -10.8549871 -75.048317
  vertex 395 -9.38128185 -75.618721
  vertex 395 -10.6187181 -75.618721
  endloop
 endfacet

 facet normal 0 0.923879981 0.382682443
  outer loop
  vertex 375 -10.875 -75
  vertex 394.951691 -10.875 -75
  vertex 375 -10.6187181 -75.618721
  endloop
 endfacet

 facet normal 0 0.923879981 -0.382682443
  outer loop
  vertex 394.951691 -10.875 -75
  vertex 375 -10.875 -75
  vertex 394.332977 -10.6187181 -74.381279
  endloop
 endfacet

 facet normal 0 -0.923879981 0.382682443
  outer loop
  vertex 375 -9.38128185 -75.618721
  vertex 395 -9.38128185 -75.618721
  vertex 375 -9.125 -75
  endloop
 endfacet

 facet normal 0 0.923879981 -0.382682502
  outer loop
  vertex 288 9.125 -75
  vertex 278.553406 9.125 -75
  vertex 288 9.38128185 -74.381279
  endloop
 endfacet

 facet normal 0 -0.923879981 -0.382682502
  outer loop
  vertex 278.553406 10.875 -75
  vertex 288 10.875 -75
  vertex 279.172119 10.6187181 -74.381279
  endloop
 endfacet

 facet normal 0 0.923879981 -0.382682443
  outer loop
  vertex 279.172119 9.38128185 -74.381279
  vertex 288 9.38128185 -74.381279
  vertex 278.553406 9.125 -75
  endloop
 endfacet

 facet normal 0 -0.923879981 -0.382682443
  outer loop
  vertex 288 10.6187181 -74.381279
  vertex 279.172119 10.6187181 -74.381279
  vertex 288 10.875 -75
  endloop
 endfacet

 facet normal 0 0.923879981 -0.382682443
  outer loop
  vertex 279.172119 -10.6187181 -74.381279
  vertex 288 -10.6187181 -74.381279
  vertex 278.553406 -10.875 -75
  endloop
 endfacet

 facet normal 0 -0.923879981 -0.382682443
  outer loop
  vertex 288 -9.38128185 -74.381279
  vertex 279.172119 -9.38128185 -74.381279
  vertex 288 -9.125 -75
  endloop
 endfacet

 facet normal 0 0.923879981 0.382682443
  outer loop
  vertex 288 -10.6187181 -75.618721
  vertex 277.934662 -10.6187181 -75.618721
  vertex 288 -10.875 -75
  endloop
 endfacet

 facet normal 0 -0.923879981 -0.382682502
  outer loop
  vertex 288 -9.125 -75
  vertex 279.172119 -9.38128185 -74.381279
  vertex 278.553406 -9.125 -75
  endloop
 endfacet

 facet normal 0 0 -1
  outer loop
  vertex 318 10 -78
  vertex 318.267944 11 -78
  vertex 318.267944 9 -78
  endloop
 endfacet

 facet normal 0 0 -1
  outer loop
  vertex 319 11.7320509 -78
  vertex 318.267944 9 -78
  vertex 318.267944 11 -78
  endloop
 endfacet

 facet normal 0.707104445 0.707109153 0
  outer loop
  vertex 319 8.2679491 -80
  vertex 318.267944 9 -80
  vertex 319 8.2679491 -78
  endloop
 endfacet

 facet normal -0.707104445 0.707109153 -9.05207909e-09
  outer loop
  vertex 321 8.2679491 -80
  vertex 321.732056 9 -78
  vertex 321.732056 9 -80
  endloop
 endfacet

 facet normal 0 0 -1
  outer loop
  vertex 321 8.2679491 -78
  vertex 320 8 -78
  vertex 321 11.7320509 -78
  endloop
 endfacet

 facet normal 0 0 -1
  outer loop
  vertex 321 11.7320509 -78
  vertex 320 8 -78
  vertex 320 12 -78
  endloop
 endfacet

 facet normal 0 0 -1
  outer loop
  vertex 319 8.2679491 -78
  vertex 318.267944 9 -78
  vertex 319 11.7320509 -78
  endloop
 endfacet

 facet normal -0.258818954 -0.965925872 0
  outer loop
  vertex 320 12 -78
  vertex 320 12 -80
  vertex 321 11.7320509 -78
  endloop
 endfacet

 facet normal 0.258818954 -0.965925872 0
  outer loop
  vertex 319 11.7320509 -78
  vertex 319 11.7320509 -80
  vertex 320 12 -78
  endloop
 endfacet

 facet normal 0.707104445 -0.707109153 0
  outer loop
  vertex 318.267944 11 -78
  vertex 318.267944 11 -80
  vertex 319 11.7320509 -78
  endloop
 endfacet

 facet normal -0.258818954 -0.965925872 0
  outer loop
  vertex 321 11.7320509 -80
  vertex 321 11.7320509 -78
  vertex 320 12 -80
  endloop
 endfacet

 facet normal 0.258818954 -0.965925872 0
  outer loop
  vertex 319 11.7320509 -80
  vertex 320 12 -80
  vertex 320 12 -78
  endloop
 endfacet

 facet normal 0.707104445 -0.707109153 -9.05207909e-09
  outer loop
  vertex 318.267944 11 -80
  vertex 319 11.7320509 -80
  vertex 319 11.7320509 -78
  endloop
 endfacet

 facet normal 0.965927005 -0.258814663 0
  outer loop
  vertex 318 10 -78
  vertex 318 10 -80
  vertex 318.267944 11 -78
  endloop
 endfacet

 facet normal 0.707104445 0.707109153 9.05207909e-09
  outer loop
  vertex 319 8.2679491 -78
  vertex 318.267944 9 -80
  vertex 318.267944 9 -78
  endloop
 endfacet

 facet normal 0.965927005 -0.258814663 0
  outer loop
  vertex 318 10 -80
  vertex 318.267944 11 -80
  vertex 318.267944 11 -78
  endloop
 endfacet

 facet normal 0 0 -1
  outer loop
  vertex 320 8 -78
  vertex 319 8.2679491 -78
  vertex 320 12 -78
  endloop
 endfacet

 facet normal 0 0 -1
  outer loop
  vertex 321 11.7320509 -78
  vertex 321.732056 11 -78
  vertex 321 8.2679491 -78
  endloop
 endfacet

 facet normal -0.707104445 0.707109153 0
  outer loop
  vertex 321 8.2679491 -80
  vertex 321 8.2679491 -78
  vertex 321.732056 9 -78
  endloop
 endfacet

 facet normal -0.258818954 0.965925872 0
  outer loop
  vertex 321 8.2679491 -80
  vertex 320 8 -78
  vertex 321 8.2679491 -78
  endloop
 endfacet

 facet normal 0.258818954 0.965925872 0
  outer loop
  vertex 320 8 -78
  vertex 320 8 -80
  vertex 319 8.2679491 -78
  endloop
 endfacet

 facet normal -0.258818954 0.965925872 0
  outer loop
  vertex 320 8 -80
  vertex 320 8 -78
  vertex 321 8.2679491 -80
  endloop
 endfacet

 facet normal 0.258818954 0.965925872 0
  outer loop
  vertex 320 8 -80
  vertex 319 8.2679491 -80
  vertex 319 8.2679491 -78
  endloop
 endfacet

 facet normal 0 0 -1
  outer loop
  vertex 322 10 -78
  vertex 321.732056 9 -78
  vertex 321.732056 11 -78
  endloop
 endfacet

 facet normal 0 0 -1
  outer loop
  vertex 321.732056 9 -78
  vertex 321 8.2679491 -78
  vertex 321.732056 11 -78
  endloop
 endfacet

 facet normal -0.707104445 -0.707109153 0
  outer loop
  vertex 321 11.7320509 -78
  vertex 321 11.7320509 -80
  vertex 321.732056 11 -78
  endloop
 endfacet

 facet normal -0.707104445 -0.707109153 0
  outer loop
  vertex 321.732056 11 -80
  vertex 321.732056 11 -78
  vertex 321 11.7320509 -80
  endloop
 endfacet

 facet normal -0.965927005 -0.258814663 0
  outer loop
  vertex 321.732056 11 -80
  vertex 322 10 -78
  vertex 321.732056 11 -78
  endloop
 endfacet

 facet normal -0.965927005 -0.258814663 0
  outer loop
  vertex 322 10 -80
  vertex 322 10 -78
  vertex 321.732056 11 -80
  endloop
 endfacet

 facet normal 0 0 -1
  outer loop
  vertex 320 12 -78
  vertex 319 8.2679491 -78
  vertex 319 11.7320509 -78
  endloop
 endfacet

 facet normal 0 0 -1
  outer loop
  vertex 321.732056 -11 -78
  vertex 321 -11.7320509 -78
  vertex 321.732056 -9 -78
  endloop
 endfacet

 facet normal 0.965927005 -0.258814663 0
  outer loop
  vertex 318 -10 -80
  vertex 318.267944 -9 -80
  vertex 318.267944 -9 -78
  endloop
 endfacet

 facet normal -0.965927005 -0.258814663 0
  outer loop
  vertex 322 -10 -80
  vertex 322 -10 -78
  vertex 321.732056 -9 -80
  endloop
 endfacet

 facet normal -0.707104445 0.707109153 0
  outer loop
  vertex 321.732056 -11 -80
  vertex 321 -11.7320509 -78
  vertex 321.732056 -11 -78
  endloop
 endfacet

 facet normal -0.707104445 0.707109153 0
  outer loop
  vertex 321 -11.7320509 -80
  vertex 321 -11.7320509 -78
  vertex 321.732056 -11 -80
  endloop
 endfacet

 facet normal 0 0 -1
  outer loop
  vertex 321.732056 -9 -78
  vertex 321 -11.7320509 -78
  vertex 321 -8.2679491 -78
  endloop
 endfacet

 facet normal 0 0 -1
  outer loop
  vertex 321 -8.2679491 -78
  vertex 320 -12 -78
  vertex 320 -8 -78
  endloop
 endfacet

 facet normal 0 0 -1
  outer loop
  vertex 320 -8 -78
  vertex 319 -11.7320509 -78
  vertex 319 -8.2679491 -78
  endloop
 endfacet

 facet normal 0 0 -1
  outer loop
  vertex 319 -8.2679491 -78
  vertex 318.267944 -11 -78
  vertex 318.267944 -9 -78
  endloop
 endfacet

 facet normal -0.707104445 -0.707109153 0
  outer loop
  vertex 321.732056 -9 -80
  vertex 321.732056 -9 -78
  vertex 321 -8.2679491 -80
  endloop
 endfacet

 facet normal 0.707104445 0.707109153 9.05207909e-09
  outer loop
  vertex 319 -11.7320509 -80
  vertex 318.267944 -11 -80
  vertex 318.267944 -11 -78
  endloop
 endfacet

 facet normal 0.258818954 0.965925872 0
  outer loop
  vertex 320 -12 -80
  vertex 319 -11.7320509 -80
  vertex 319 -11.7320509 -78
  endloop
 endfacet

 facet normal -0.258818954 0.965925872 0
  outer loop
  vertex 320 -12 -80
  vertex 320 -12 -78
  vertex 321 -11.7320509 -80
  endloop
 endfacet

 facet normal 0 0 -1
  outer loop
  vertex 321 -11.7320509 -78
  vertex 320 -12 -78
  vertex 321 -8.2679491 -78
  endloop
 endfacet

 facet normal 0 0 -1
  outer loop
  vertex 320 -12 -78
  vertex 319 -11.7320509 -78
  vertex 320 -8 -78
  endloop
 endfacet

 facet normal 0 0 -1
  outer loop
  vertex 318 -10 -78
  vertex 318.267944 -9 -78
  vertex 318.267944 -11 -78
  endloop
 endfacet

 facet normal 0.707104445 0.707109153 0
  outer loop
  vertex 319 -11.7320509 -78
  vertex 319 -11.7320509 -80
  vertex 318.267944 -11 -78
  endloop
 endfacet

 facet normal 0.707104445 -0.707109153 0
  outer loop
  vertex 319 -8.2679491 -78
  vertex 318.267944 -9 -80
  vertex 319 -8.2679491 -80
  endloop
 endfacet

 facet normal 0.258818954 -0.965925872 0
  outer loop
  vertex 319 -8.2679491 -80
  vertex 320 -8 -80
  vertex 320 -8 -78
  endloop
 endfacet

 facet normal -0.258818954 -0.965925872 0
  outer loop
  vertex 321 -8.2679491 -80
  vertex 321 -8.2679491 -78
  vertex 320 -8 -80
  endloop
 endfacet

 facet normal 0.258818954 -0.965925872 0
  outer loop
  vertex 320 -8 -78
  vertex 319 -8.2679491 -78
  vertex 319 -8.2679491 -80
  endloop
 endfacet

 facet normal -0.258818954 -0.965925872 0
  outer loop
  vertex 321 -8.2679491 -78
  vertex 320 -8 -78
  vertex 320 -8 -80
  endloop
 endfacet

 facet normal 0 0 -1
  outer loop
  vertex 319 -11.7320509 -78
  vertex 318.267944 -11 -78
  vertex 319 -8.2679491 -78
  endloop
 endfacet

 facet normal 0.258818954 0.965925872 0
  outer loop
  vertex 320 -12 -78
  vertex 320 -12 -80
  vertex 319 -11.7320509 -78
  endloop
 endfacet

 facet normal 0.707104445 -0.707109153 0
  outer loop
  vertex 318.267944 -9 -78
  vertex 318.267944 -9 -80
  vertex 319 -8.2679491 -78
  endloop
 endfacet

 facet normal 0.965927005 -0.258814663 0
  outer loop
  vertex 318 -10 -78
  vertex 318 -10 -80
  vertex 318.267944 -9 -78
  endloop
 endfacet

 facet normal -0.258818954 0.965925872 0
  outer loop
  vertex 321 -11.7320509 -80
  vertex 320 -12 -78
  vertex 321 -11.7320509 -78
  endloop
 endfacet

 facet normal -0.707104445 -0.707109153 0
  outer loop
  vertex 321 -8.2679491 -80
  vertex 321.732056 -9 -78
  vertex 321 -8.2679491 -78
  endloop
 endfacet

 facet normal 0 0 -1
  outer loop
  vertex 322 -10 -78
  vertex 321.732056 -11 -78
  vertex 321.732056 -9 -78
  endloop
 endfacet

 facet normal 0.965927005 0.258814663 0
  outer loop
  vertex 318.267944 9 -80
  vertex 318 10 -78
  vertex 318.267944 9 -78
  endloop
 endfacet

 facet normal 0.965927005 0.258814663 0
  outer loop
  vertex 318 10 -80
  vertex 318 10 -78
  vertex 318.267944 9 -80
  endloop
 endfacet

 facet normal -0.965927005 0.258814663 0
  outer loop
  vertex 321.732056 9 -80
  vertex 321.732056 9 -78
  vertex 322 10 -80
  endloop
 endfacet

 facet normal -0.965927005 0.258814663 0
  outer loop
  vertex 322 10 -80
  vertex 321.732056 9 -78
  vertex 322 10 -78
  endloop
 endfacet

 facet normal 0.965927005 0.258814663 0
  outer loop
  vertex 318.267944 -11 -80
  vertex 318 -10 -78
  vertex 318.267944 -11 -78
  endloop
 endfacet

 facet normal 0.965927005 0.258814663 0
  outer loop
  vertex 318 -10 -80
  vertex 318 -10 -78
  vertex 318.267944 -11 -80
  endloop
 endfacet

 facet normal -0.965927005 0.258814663 0
  outer loop
  vertex 321.732056 -11 -80
  vertex 321.732056 -11 -78
  vertex 322 -10 -80
  endloop
 endfacet

 facet normal -0.965927005 0.258814663 0
  outer loop
  vertex 322 -10 -80
  vertex 321.732056 -11 -78
  vertex 322 -10 -78
  endloop
 endfacet

 facet normal -0.965927005 -0.258814663 0
  outer loop
  vertex 321.732056 -9 -80
  vertex 322 -10 -78
  vertex 321.732056 -9 -78
  endloop
 endfacet

 facet normal 0 -0.184348971 0.982860804
  outer loop
  vertex 285.617279 -3.03884315 -67.9361038
  vertex 285.064636 -5.98535252 -68.4887619
  vertex 387.887787 -3.03884315 -67.9361038
  endloop
 endfacet

 facet normal 1.35668254e-10 0.933916926 0.357490271
  outer loop
  vertex 397.824493 17.2341366 -77.8728104
  vertex 277.743134 16.4446201 -75.810257
  vertex 395.761932 16.4446201 -75.810257
  endloop
 endfacet

 facet normal 2.85355017e-10 0.832247853 0.554403782
  outer loop
  vertex 395.761932 16.4446201 -75.810257
  vertex 279.678406 15.1554441 -73.875
  vertex 393.826691 15.1554441 -73.875
  endloop
 endfacet

 facet normal 0 -0.310304105 0.950637341
  outer loop
  vertex 285.064636 -5.98535252 -68.4887619
  vertex 284.162201 -8.75 -69.3911896
  vertex 388.44046 -5.98535252 -68.4887619
  endloop
 endfacet

 facet normal -5.496327e-11 -0.992279947 0.12401852
  outer loop
  vertex 273.553406 -17.5 -80
  vertex 397.824493 -17.2341366 -77.8728104
  vertex 275.680573 -17.2341366 -77.8728104
  endloop
 endfacet

 facet normal 5.3113302e-11 0.992279947 0.124018535
  outer loop
  vertex 275.680573 17.2341366 -77.8728104
  vertex 399.951691 17.5 -80
  vertex 273.553406 17.5 -80
  endloop
 endfacet

 facet normal 2.65021165e-11 -0.0611271486 0.998130023
  outer loop
  vertex 285.617279 -3.03884315 -67.9361038
  vertex 387.701691 0 -67.75
  vertex 285.803406 0 -67.75
  endloop
 endfacet

 facet normal 1.82460241e-10 0.440121263 0.897938371
  outer loop
  vertex 390.567627 11.2487831 -70.6159592
  vertex 284.162201 8.75 -69.3911896
  vertex 389.342865 8.75 -69.3911896
  endloop
 endfacet

 facet normal 0 -0.440121263 0.897938371
  outer loop
  vertex 284.162201 -8.75 -69.3911896
  vertex 282.937439 -11.2487831 -70.6159592
  vertex 389.342865 -8.75 -69.3911896
  endloop
 endfacet

 facet normal 0 -0.933916926 0.357490242
  outer loop
  vertex 277.743134 -16.4446201 -75.810257
  vertex 275.680573 -17.2341366 -77.8728104
  vertex 395.761932 -16.4446201 -75.810257
  endloop
 endfacet

 facet normal 0 -0.832247853 0.554403782
  outer loop
  vertex 279.678406 -15.1554441 -73.875
  vertex 277.743134 -16.4446201 -75.810257
  vertex 393.826691 -15.1554441 -73.875
  endloop
 endfacet

 facet normal 1.65714761e-10 -0.707001507 0.707212031
  outer loop
  vertex 392.077545 -13.4057779 -72.1258545
  vertex 279.678406 -15.1554441 -73.875
  vertex 393.826691 -15.1554441 -73.875
  endloop
 endfacet

 facet normal -7.12022732e-11 -0.573462069 0.819232106
  outer loop
  vertex 390.567627 -11.2487831 -70.6159592
  vertex 281.427551 -13.4057779 -72.1258545
  vertex 392.077545 -13.4057779 -72.1258545
  endloop
 endfacet

 facet normal -1.78307688e-10 -0.440121233 0.897938371
  outer loop
  vertex 389.342865 -8.75 -69.3911896
  vertex 282.937439 -11.2487831 -70.6159592
  vertex 390.567627 -11.2487831 -70.6159592
  endloop
 endfacet

 facet normal -3.53442636e-10 -0.310304075 0.950637341
  outer loop
  vertex 388.44046 -5.98535252 -68.4887619
  vertex 284.162201 -8.75 -69.3911896
  vertex 389.342865 -8.75 -69.3911896
  endloop
 endfacet

 facet normal -1.70953959e-10 0.707001507 0.707212031
  outer loop
  vertex 393.826691 15.1554441 -73.875
  vertex 281.427551 13.4057779 -72.1258545
  vertex 392.077545 13.4057779 -72.1258545
  endloop
 endfacet

 facet normal 2.75996587e-10 0.832247853 0.554403841
  outer loop
  vertex 279.678406 15.1554441 -73.875
  vertex 395.761932 16.4446201 -75.810257
  vertex 277.743134 16.4446201 -75.810257
  endloop
 endfacet

 facet normal 5.496327e-11 0.992279887 0.12401852
  outer loop
  vertex 399.951691 17.5 -80
  vertex 275.680573 17.2341366 -77.8728104
  vertex 397.824493 17.2341366 -77.8728104
  endloop
 endfacet

 facet normal 7.32000086e-11 0.573462069 0.819232106
  outer loop
  vertex 392.077545 13.4057779 -72.1258545
  vertex 282.937439 11.2487831 -70.6159592
  vertex 390.567627 11.2487831 -70.6159592
  endloop
 endfacet

 facet normal 3.59613422e-10 0.310304105 0.950637341
  outer loop
  vertex 389.342865 8.75 -69.3911896
  vertex 285.064636 5.98535252 -68.4887619
  vertex 388.44046 5.98535252 -68.4887619
  endloop
 endfacet

 facet normal 0 0.184349 0.982860923
  outer loop
  vertex 285.064636 5.98535252 -68.4887619
  vertex 387.887787 3.03884315 -67.9361038
  vertex 388.44046 5.98535252 -68.4887619
  endloop
 endfacet

 facet normal 0 -0.573462069 0.819232106
  outer loop
  vertex 282.937439 -11.2487831 -70.6159592
  vertex 281.427551 -13.4057779 -72.1258545
  vertex 390.567627 -11.2487831 -70.6159592
  endloop
 endfacet

 facet normal -2.65021165e-11 0.0611271486 0.998130023
  outer loop
  vertex 387.887787 3.03884315 -67.9361038
  vertex 285.803406 0 -67.75
  vertex 387.701691 0 -67.75
  endloop
 endfacet

 facet normal 0 -0.707001507 0.707212031
  outer loop
  vertex 281.427551 -13.4057779 -72.1258545
  vertex 279.678406 -15.1554441 -73.875
  vertex 392.077545 -13.4057779 -72.1258545
  endloop
 endfacet

 facet normal -1.20346649e-10 -0.184349 0.982860923
  outer loop
  vertex 387.887787 -3.03884315 -67.9361038
  vertex 285.064636 -5.98535252 -68.4887619
  vertex 388.44046 -5.98535252 -68.4887619
  endloop
 endfacet

 facet normal 2.64056606e-11 -0.0611271486 0.998130023
  outer loop
  vertex 387.701691 0 -67.75
  vertex 285.617279 -3.03884315 -67.9361038
  vertex 387.887787 -3.03884315 -67.9361038
  endloop
 endfacet

 facet normal -2.75996587e-10 -0.832247794 0.554403841
  outer loop
  vertex 393.826691 -15.1554441 -73.875
  vertex 277.743134 -16.4446201 -75.810257
  vertex 395.761932 -16.4446201 -75.810257
  endloop
 endfacet

 facet normal 0 0.0611271486 0.998130023
  outer loop
  vertex 285.617279 3.03884315 -67.9361038
  vertex 285.803406 0 -67.75
  vertex 387.887787 3.03884315 -67.9361038
  endloop
 endfacet

 facet normal 1.21647317e-10 0.184348956 0.982860804
  outer loop
  vertex 285.064636 5.98535252 -68.4887619
  vertex 285.617279 3.03884315 -67.9361038
  vertex 387.887787 3.03884315 -67.9361038
  endloop
 endfacet

 facet normal 0 0.310304075 0.950637341
  outer loop
  vertex 284.162201 8.75 -69.3911896
  vertex 285.064636 5.98535252 -68.4887619
  vertex 389.342865 8.75 -69.3911896
  endloop
 endfacet

 facet normal 7.12022732e-11 0.573462069 0.819232106
  outer loop
  vertex 282.937439 11.2487831 -70.6159592
  vertex 392.077545 13.4057779 -72.1258545
  vertex 281.427551 13.4057779 -72.1258545
  endloop
 endfacet

 facet normal -1.65714761e-10 0.707001507 0.707212031
  outer loop
  vertex 281.427551 13.4057779 -72.1258545
  vertex 393.826691 15.1554441 -73.875
  vertex 279.678406 15.1554441 -73.875
  endloop
 endfacet

 facet normal 0 0.440121233 0.897938371
  outer loop
  vertex 282.937439 11.2487831 -70.6159592
  vertex 284.162201 8.75 -69.3911896
  vertex 390.567627 11.2487831 -70.6159592
  endloop
 endfacet

 facet normal -1.31086392e-10 -0.933916926 0.357490242
  outer loop
  vertex 395.761932 -16.4446201 -75.810257
  vertex 275.680573 -17.2341366 -77.8728104
  vertex 397.824493 -17.2341366 -77.8728104
  endloop
 endfacet

 facet normal -5.31132915e-11 -0.992279947 0.124018528
  outer loop
  vertex 397.824493 -17.2341366 -77.8728104
  vertex 273.553406 -17.5 -80
  vertex 399.951691 -17.5 -80
  endloop
 endfacet

 facet normal 1.31086392e-10 0.933916926 0.357490242
  outer loop
  vertex 277.743134 16.4446201 -75.810257
  vertex 397.824493 17.2341366 -77.8728104
  vertex 275.680573 17.2341366 -77.8728104
  endloop
 endfacet

 facet normal 0 0 -1
  outer loop
  vertex 321 -8.2679491 -80
  vertex 320 -8 -80
  vertex 399.951691 -17.5 -80
  endloop
 endfacet

 facet normal 0 0 -1
  outer loop
  vertex 285.790894 -3.17499995 -80
  vertex 399.951691 -17.5 -80
  vertex 320 -8 -80
  endloop
 endfacet

 facet normal 0 0 -1
  outer loop
  vertex 399.951691 -17.5 -80
  vertex 321.732056 -11 -80
  vertex 322 -10 -80
  endloop
 endfacet

 facet normal 0 0 -1
  outer loop
  vertex 399.951691 -17.5 -80
  vertex 321 -11.7320509 -80
  vertex 321.732056 -11 -80
  endloop
 endfacet

 facet normal 0 0 -1
  outer loop
  vertex 399.951691 -17.5 -80
  vertex 320 -12 -80
  vertex 321 -11.7320509 -80
  endloop
 endfacet

 facet normal 0 0 -1
  outer loop
  vertex 399.951691 -17.5 -80
  vertex 285.790894 -3.17499995 -80
  vertex 399.951691 -3.17499995 -80
  endloop
 endfacet

 facet normal 0 0 -1
  outer loop
  vertex 399.951691 3.17499995 -80
  vertex 320 8 -80
  vertex 321 8.2679491 -80
  endloop
 endfacet

 facet normal 0 0 -1
  outer loop
  vertex 399.951691 3.17499995 -80
  vertex 321 8.2679491 -80
  vertex 321.732056 9 -80
  endloop
 endfacet

 facet normal 0 0 -1
  outer loop
  vertex 318.267944 11 -80
  vertex 273.553406 17.5 -80
  vertex 319 11.7320509 -80
  endloop
 endfacet

 facet normal 0 0 -1
  outer loop
  vertex 318 10 -80
  vertex 273.553406 17.5 -80
  vertex 318.267944 11 -80
  endloop
 endfacet

 facet normal 0 0 -1
  outer loop
  vertex 318.267944 9 -80
  vertex 273.553406 17.5 -80
  vertex 318 10 -80
  endloop
 endfacet

 facet normal 0 0 -1
  outer loop
  vertex 319 8.2679491 -80
  vertex 273.553406 17.5 -80
  vertex 318.267944 9 -80
  endloop
 endfacet

 facet normal 0 0 -1
  outer loop
  vertex 320 8 -80
  vertex 273.553406 17.5 -80
  vertex 319 8.2679491 -80
  endloop
 endfacet

 facet normal 0 0 -1
  outer loop
  vertex 273.553406 3.17499995 -80
  vertex 320 8 -80
  vertex 399.951691 3.17499995 -80
  endloop
 endfacet

 facet normal 0 0 -1
  outer loop
  vertex 273.553406 -17.5 -80
  vertex 320 -12 -80
  vertex 399.951691 -17.5 -80
  endloop
 endfacet

 facet normal 0 0 -1
  outer loop
  vertex 285.790894 -3.17499995 -80
  vertex 273.553406 -17.5 -80
  vertex 273.553406 -3.17499995 -80
  endloop
 endfacet

 facet normal 0 0 -1
  outer loop
  vertex 399.951691 3.17499995 -80
  vertex 321.732056 9 -80
  vertex 322 10 -80
  endloop
 endfacet

 facet normal 0 0 -1
  outer loop
  vertex 273.553406 17.5 -80
  vertex 320 8 -80
  vertex 273.553406 3.17499995 -80
  endloop
 endfacet

 facet normal 0 0 -1
  outer loop
  vertex 399.951691 3.17499995 -80
  vertex 322 10 -80
  vertex 321.732056 11 -80
  endloop
 endfacet

 facet normal 0 0 -1
  outer loop
  vertex 399.951691 3.17499995 -80
  vertex 321.732056 11 -80
  vertex 321 11.7320509 -80
  endloop
 endfacet

 facet normal 0 0 -1
  outer loop
  vertex 399.951691 -17.5 -80
  vertex 322 -10 -80
  vertex 321.732056 -9 -80
  endloop
 endfacet

 facet normal 0 0 -1
  outer loop
  vertex 321 11.7320509 -80
  vertex 320 12 -80
  vertex 399.951691 3.17499995 -80
  endloop
 endfacet

 facet normal 0 0 -1
  outer loop
  vertex 399.951691 3.17499995 -80
  vertex 273.553406 17.5 -80
  vertex 399.951691 17.5 -80
  endloop
 endfacet

 facet normal 0 0 -1
  outer loop
  vertex 319 11.7320509 -80
  vertex 273.553406 17.5 -80
  vertex 320 12 -80
  endloop
 endfacet

 facet normal 0 0 -1
  outer loop
  vertex 319 -8.2679491 -80
  vertex 285.790894 -3.17499995 -80
  vertex 320 -8 -80
  endloop
 endfacet

 facet normal 0 0 -1
  outer loop
  vertex 318.267944 -9 -80
  vertex 285.790894 -3.17499995 -80
  vertex 319 -8.2679491 -80
  endloop
 endfacet

 facet normal 0 0 -1
  outer loop
  vertex 320 12 -80
  vertex 273.553406 17.5 -80
  vertex 399.951691 3.17499995 -80
  endloop
 endfacet

 facet normal 0 0 -1
  outer loop
  vertex 318.267944 -11 -80
  vertex 273.553406 -17.5 -80
  vertex 318 -10 -80
  endloop
 endfacet

 facet normal 0 0 -1
  outer loop
  vertex 273.553406 -17.5 -80
  vertex 285.790894 -3.17499995 -80
  vertex 318 -10 -80
  endloop
 endfacet

 facet normal 0 0 -1
  outer loop
  vertex 319 -11.7320509 -80
  vertex 273.553406 -17.5 -80
  vertex 318.267944 -11 -80
  endloop
 endfacet

 facet normal 0 0 -1
  outer loop
  vertex 318 -10 -80
  vertex 285.790894 -3.17499995 -80
  vertex 318.267944 -9 -80
  endloop
 endfacet

 facet normal 0 0 -1
  outer loop
  vertex 273.553406 -17.5 -80
  vertex 319 -11.7320509 -80
  vertex 320 -12 -80
  endloop
 endfacet

 facet normal 0 0 -1
  outer loop
  vertex 399.951691 -17.5 -80
  vertex 321.732056 -9 -80
  vertex 321 -8.2679491 -80
  endloop
 endfacet

 facet normal 0 1 0
  outer loop
  vertex 399.951691 -3.17499995 -80
  vertex 285.790894 -3.17499995 -80
  vertex 389.851685 -3.17499995 -69.9000015
  endloop
 endfacet

 facet normal 0 1 0
  outer loop
  vertex 285.790894 -3.17499995 -80
  vertex 283.653381 -3.17499995 -69.9000015
  vertex 389.851685 -3.17499995 -69.9000015
  endloop
 endfacet

 facet normal 0 1 0
  outer loop
  vertex 285.790894 -3.17499995 -80
  vertex 273.553406 -3.17499995 -80
  vertex 283.653381 -3.17499995 -69.9000015
  endloop
 endfacet

 facet normal 0 -1 0
  outer loop
  vertex 273.553406 3.17499995 -80
  vertex 389.851685 3.17499995 -69.9000015
  vertex 283.653381 3.17499995 -69.9000015
  endloop
 endfacet

 facet normal 0 -1 0
  outer loop
  vertex 389.851685 3.17499995 -69.9000015
  vertex 273.553406 3.17499995 -80
  vertex 399.951691 3.17499995 -80
  endloop
 endfacet

 facet normal 0 0 -1
  outer loop
  vertex 283.653381 3.17499995 -69.9000015
  vertex 389.851685 -3.17499995 -69.9000015
  vertex 283.653381 -3.17499995 -69.9000015
  endloop
 endfacet

 facet normal 0 0 -1
  outer loop
  vertex 389.851685 -3.17499995 -69.9000015
  vertex 283.653381 3.17499995 -69.9000015
  vertex 389.851685 3.17499995 -69.9000015
  endloop
 endfacet

 facet normal 0.70710367 -3.10867449e-06 0.707109928
  outer loop
  vertex 390.567627 11.2487831 -70.6159592
  vertex 394.332977 10.6187181 -74.381279
  vertex 392.077545 13.4057779 -72.1258545
  endloop
 endfacet

 facet normal 0.707113445 1.12699527e-05 0.707100153
  outer loop
  vertex 394.332977 9.38128185 -74.381279
  vertex 399.951691 3.17499995 -80
  vertex 394.951691 9.125 -75
  endloop
 endfacet

 facet normal 0.707113147 9.59947647e-06 0.707100511
  outer loop
  vertex 394.332977 -10.6187181 -74.381279
  vertex 399.951691 -17.5 -80
  vertex 394.951691 -10.875 -75
  endloop
 endfacet

 facet normal 0.707106292 0 0.707107306
  outer loop
  vertex 395 -10.8549871 -75.048317
  vertex 399.951691 -17.5 -80
  vertex 395 -9.14501286 -75.048317
  endloop
 endfacet

 facet normal 0.707148194 -6.95998169e-05 0.707065403
  outer loop
  vertex 395 -9.14501286 -75.048317
  vertex 399.951691 -3.17499995 -80
  vertex 394.951691 -9.125 -75
  endloop
 endfacet

 facet normal 0.707107067 -4.95480322e-07 0.707106531
  outer loop
  vertex 394.951691 -9.125 -75
  vertex 399.951691 -3.17499995 -80
  vertex 388.44046 -5.98535252 -68.4887619
  endloop
 endfacet

 facet normal 0.707149386 6.42025479e-05 0.707064271
  outer loop
  vertex 394.951691 -10.875 -75
  vertex 399.951691 -17.5 -80
  vertex 395 -10.8549871 -75.048317
  endloop
 endfacet

 facet normal 0.707109928 1.18053531e-05 0.707103729
  outer loop
  vertex 392.077545 -13.4057779 -72.1258545
  vertex 399.951691 -17.5 -80
  vertex 390.567627 -11.2487831 -70.6159592
  endloop
 endfacet

 facet normal 0.707106829 0 0.707106829
  outer loop
  vertex 393.826691 -15.1554441 -73.875
  vertex 399.951691 -17.5 -80
  vertex 392.077545 -13.4057779 -72.1258545
  endloop
 endfacet

 facet normal 0.707103014 -1.97374957e-05 0.707110584
  outer loop
  vertex 395.761932 -16.4446201 -75.810257
  vertex 399.951691 -17.5 -80
  vertex 393.826691 -15.1554441 -73.875
  endloop
 endfacet

 facet normal 0.707108915 2.12623536e-06 0.707104743
  outer loop
  vertex 393.826691 15.1554441 -73.875
  vertex 399.951691 3.17499995 -80
  vertex 395.761932 16.4446201 -75.810257
  endloop
 endfacet

 facet normal 0.707105637 4.96050006e-07 0.707108021
  outer loop
  vertex 399.951691 -17.5 -80
  vertex 395.761932 -16.4446201 -75.810257
  vertex 397.824493 -17.2341366 -77.8728104
  endloop
 endfacet

 facet normal 0.707104445 -4.45184014e-06 0.707109213
  outer loop
  vertex 390.567627 -11.2487831 -70.6159592
  vertex 399.951691 -17.5 -80
  vertex 389.342865 -8.75 -69.3911896
  endloop
 endfacet

 facet normal 0.707102776 -8.4704252e-06 0.707110822
  outer loop
  vertex 389.342865 -8.75 -69.3911896
  vertex 399.951691 -17.5 -80
  vertex 388.44046 -5.98535252 -68.4887619
  endloop
 endfacet

 facet normal 0.706940472 -0.000128608648 0.707273066
  outer loop
  vertex 395.570404 10.6187181 -75.618721
  vertex 395.826691 10 -75.875
  vertex 393.826691 15.1554441 -73.875
  endloop
 endfacet

 facet normal 0.707109392 8.80782045e-06 0.707104266
  outer loop
  vertex 394.332977 -9.38128185 -74.381279
  vertex 394.951691 -9.125 -75
  vertex 388.44046 -5.98535252 -68.4887619
  endloop
 endfacet

 facet normal 0.707105517 -3.15563198e-09 0.70710814
  outer loop
  vertex 395.761932 16.4446201 -75.810257
  vertex 399.951691 3.17499995 -80
  vertex 397.824493 17.2341366 -77.8728104
  endloop
 endfacet

 facet normal 0.707106531 4.08944743e-06 0.707107067
  outer loop
  vertex 388.44046 -5.98535252 -68.4887619
  vertex 399.951691 -3.17499995 -80
  vertex 389.851685 -3.17499995 -69.9000015
  endloop
 endfacet

 facet normal 0.707106888 3.71029819e-06 0.707106709
  outer loop
  vertex 387.887787 -3.03884315 -67.9361038
  vertex 388.44046 -5.98535252 -68.4887619
  vertex 389.851685 -3.17499995 -69.9000015
  endloop
 endfacet

 facet normal 0.707106769 -1.78401285e-06 0.707106829
  outer loop
  vertex 387.701691 0 -67.75
  vertex 387.887787 -3.03884315 -67.9361038
  vertex 389.851685 -3.17499995 -69.9000015
  endloop
 endfacet

 facet normal 0.707105994 -2.11029601e-06 0.707107663
  outer loop
  vertex 388.44046 -5.98535252 -68.4887619
  vertex 399.951691 -17.5 -80
  vertex 394.332977 -10.6187181 -74.381279
  endloop
 endfacet

 facet normal 0.707106888 -3.70718499e-06 0.707106709
  outer loop
  vertex 388.44046 5.98535252 -68.4887619
  vertex 387.887787 3.03884315 -67.9361038
  vertex 389.851685 3.17499995 -69.9000015
  endloop
 endfacet

 facet normal 0.707106769 1.78129801e-06 0.707106829
  outer loop
  vertex 387.887787 3.03884315 -67.9361038
  vertex 387.701691 0 -67.75
  vertex 389.851685 3.17499995 -69.9000015
  endloop
 endfacet

 facet normal 0.70710808 -1.18540546e-08 0.707105517
  outer loop
  vertex 387.701691 0 -67.75
  vertex 389.851685 -3.17499995 -69.9000015
  vertex 389.851685 3.17499995 -69.9000015
  endloop
 endfacet

 facet normal 0.707106829 2.11503539e-06 0.707106769
  outer loop
  vertex 389.342865 8.75 -69.3911896
  vertex 399.951691 3.17499995 -80
  vertex 390.567627 11.2487831 -70.6159592
  endloop
 endfacet

 facet normal 0.707107723 5.28051851e-06 0.707105875
  outer loop
  vertex 388.44046 5.98535252 -68.4887619
  vertex 399.951691 3.17499995 -80
  vertex 389.342865 8.75 -69.3911896
  endloop
 endfacet

 facet normal 0.707106471 -4.1019407e-06 0.707107127
  outer loop
  vertex 389.851685 3.17499995 -69.9000015
  vertex 399.951691 3.17499995 -80
  vertex 388.44046 5.98535252 -68.4887619
  endloop
 endfacet

 facet normal 0.707110763 2.07012999e-06 0.707102895
  outer loop
  vertex 394.332977 10.6187181 -74.381279
  vertex 394.951691 10.875 -75
  vertex 393.826691 15.1554441 -73.875
  endloop
 endfacet

 facet normal 0.707111716 2.57159877e-06 0.707101941
  outer loop
  vertex 394.951691 10.875 -75
  vertex 395.570404 10.6187181 -75.618721
  vertex 393.826691 15.1554441 -73.875
  endloop
 endfacet

 facet normal 0.707101226 -1.10781166e-05 0.707112432
  outer loop
  vertex 390.567627 11.2487831 -70.6159592
  vertex 399.951691 3.17499995 -80
  vertex 394.332977 9.38128185 -74.381279
  endloop
 endfacet

 facet normal 0.707106292 1.06965103e-06 0.707107306
  outer loop
  vertex 393.826691 15.1554441 -73.875
  vertex 392.077545 13.4057779 -72.1258545
  vertex 394.332977 10.6187181 -74.381279
  endloop
 endfacet

 facet normal 0.707102537 -5.17615217e-06 0.707111061
  outer loop
  vertex 395.570404 9.38128185 -75.618721
  vertex 399.951691 3.17499995 -80
  vertex 395.826691 10 -75.875
  endloop
 endfacet

 facet normal 0.707110107 5.43526085e-06 0.70710355
  outer loop
  vertex 394.951691 9.125 -75
  vertex 399.951691 3.17499995 -80
  vertex 395.570404 9.38128185 -75.618721
  endloop
 endfacet

 facet normal 0.707106769 0 0.707106829
  outer loop
  vertex 395.826691 10 -75.875
  vertex 399.951691 3.17499995 -80
  vertex 393.826691 15.1554441 -73.875
  endloop
 endfacet

 facet normal 0.707103431 -5.93525328e-06 0.707110167
  outer loop
  vertex 394.332977 10.6187181 -74.381279
  vertex 390.567627 11.2487831 -70.6159592
  vertex 394.076691 10 -74.125
  endloop
 endfacet

 facet normal 0.707105577 -9.94125893e-10 0.70710808
  outer loop
  vertex 397.824493 17.2341366 -77.8728104
  vertex 399.951691 3.17499995 -80
  vertex 399.951691 17.5 -80
  endloop
 endfacet

 facet normal 0.707104802 -7.04547165e-06 0.707108855
  outer loop
  vertex 394.076691 -10 -74.125
  vertex 394.332977 -9.38128185 -74.381279
  vertex 388.44046 -5.98535252 -68.4887619
  endloop
 endfacet

 facet normal 0.707111835 1.29149039e-05 0.707101762
  outer loop
  vertex 394.076691 -10 -74.125
  vertex 388.44046 -5.98535252 -68.4887619
  vertex 394.332977 -10.6187181 -74.381279
  endloop
 endfacet

 facet normal 0.707106292 4.33797087e-09 0.707107306
  outer loop
  vertex 395 -9.14501286 -75.048317
  vertex 399.951691 -17.5 -80
  vertex 399.951691 -3.17499995 -80
  endloop
 endfacet

 facet normal 0.707105935 7.98173733e-06 0.707107663
  outer loop
  vertex 394.076691 10 -74.125
  vertex 390.567627 11.2487831 -70.6159592
  vertex 394.332977 9.38128185 -74.381279
  endloop
 endfacet

 facet normal -0.707113147 -9.59947647e-06 0.707100511
  outer loop
  vertex 279.172119 10.6187181 -74.381279
  vertex 273.553406 17.5 -80
  vertex 278.553406 10.875 -75
  endloop
 endfacet

 facet normal -0.707106173 2.78651555e-06 0.707107484
  outer loop
  vertex 282.937439 11.2487831 -70.6159592
  vertex 273.553406 17.5 -80
  vertex 284.162201 8.75 -69.3911896
  endloop
 endfacet

 facet normal -0.707096815 1.50398246e-05 0.707116783
  outer loop
  vertex 278.553406 10.875 -75
  vertex 273.553406 17.5 -80
  vertex 277.934662 10.6187181 -75.618721
  endloop
 endfacet

 facet normal -0.707110584 -1.96270303e-05 0.707103014
  outer loop
  vertex 277.743134 16.4446201 -75.810257
  vertex 273.553406 17.5 -80
  vertex 279.678406 15.1554441 -73.875
  endloop
 endfacet

 facet normal -0.707113087 -3.98879056e-05 0.70710057
  outer loop
  vertex 273.553406 17.5 -80
  vertex 277.743134 16.4446201 -75.810257
  vertex 275.680573 17.2341366 -77.8728104
  endloop
 endfacet

 facet normal -0.707120359 -1.49301923e-05 0.707093239
  outer loop
  vertex 277.934662 10.6187181 -75.618721
  vertex 273.553406 17.5 -80
  vertex 277.678406 10 -75.875
  endloop
 endfacet

 facet normal -0.707105875 3.92395896e-06 0.707107782
  outer loop
  vertex 281.427551 13.4057779 -72.1258545
  vertex 273.553406 17.5 -80
  vertex 282.937439 11.2487831 -70.6159592
  endloop
 endfacet

 facet normal -0.707010448 0.00010593464 0.70720315
  outer loop
  vertex 277.678406 10 -75.875
  vertex 273.553406 17.5 -80
  vertex 277.934662 9.38128185 -75.618721
  endloop
 endfacet

 facet normal -0.707113087 3.95748175e-05 0.70710057
  outer loop
  vertex 275.680573 -17.2341366 -77.8728104
  vertex 277.743134 -16.4446201 -75.810257
  vertex 273.553406 -17.5 -80
  endloop
 endfacet

 facet normal -0.707107067 4.95480322e-07 0.707106531
  outer loop
  vertex 278.553406 9.125 -75
  vertex 273.553406 3.17499995 -80
  vertex 285.064636 5.98535252 -68.4887619
  endloop
 endfacet

 facet normal -0.707097113 -1.63136119e-05 0.707116544
  outer loop
  vertex 277.934662 9.38128185 -75.618721
  vertex 273.553406 3.17499995 -80
  vertex 278.553406 9.125 -75
  endloop
 endfacet

 facet normal -0.707106829 -3.32684946e-09 0.707106829
  outer loop
  vertex 285.617279 -3.03884315 -67.9361038
  vertex 283.653381 3.17499995 -69.9000015
  vertex 283.653381 -3.17499995 -69.9000015
  endloop
 endfacet

 facet normal -0.70710665 -3.70591556e-06 0.707107008
  outer loop
  vertex 283.653381 -3.17499995 -69.9000015
  vertex 285.064636 -5.98535252 -68.4887619
  vertex 285.617279 -3.03884315 -67.9361038
  endloop
 endfacet

 facet normal -0.707106173 -3.18406546e-06 0.707107484
  outer loop
  vertex 283.653381 -3.17499995 -69.9000015
  vertex 279.428406 -10 -74.125
  vertex 285.064636 -5.98535252 -68.4887619
  endloop
 endfacet

 facet normal -0.707120359 1.49211774e-05 0.707093239
  outer loop
  vertex 277.678406 -10 -75.875
  vertex 273.553406 -17.5 -80
  vertex 277.934662 -10.6187181 -75.618721
  endloop
 endfacet

 facet normal -0.707111835 -1.29149039e-05 0.707101762
  outer loop
  vertex 279.428406 10 -74.125
  vertex 285.064636 5.98535252 -68.4887619
  vertex 279.172119 10.6187181 -74.381279
  endloop
 endfacet

 facet normal -0.707108617 3.12416751e-06 0.707104981
  outer loop
  vertex 285.064636 -5.98535252 -68.4887619
  vertex 273.553406 -17.5 -80
  vertex 284.162201 -8.75 -69.3911896
  endloop
 endfacet

 facet normal -0.707106233 -2.79943174e-06 0.707107425
  outer loop
  vertex 284.162201 -8.75 -69.3911896
  vertex 273.553406 -17.5 -80
  vertex 282.937439 -11.2487831 -70.6159592
  endloop
 endfacet

 facet normal -0.707107604 -5.67701534e-07 0.707106054
  outer loop
  vertex 283.653381 -3.17499995 -69.9000015
  vertex 273.553406 -3.17499995 -80
  vertex 279.172119 -9.38128185 -74.381279
  endloop
 endfacet

 facet normal -0.707113445 -1.12699527e-05 0.707100153
  outer loop
  vertex 279.172119 -9.38128185 -74.381279
  vertex 273.553406 -3.17499995 -80
  vertex 278.553406 -9.125 -75
  endloop
 endfacet

 facet normal -0.707097113 1.63054847e-05 0.707116544
  outer loop
  vertex 278.553406 -9.125 -75
  vertex 273.553406 -3.17499995 -80
  vertex 277.934662 -9.38128185 -75.618721
  endloop
 endfacet

 facet normal -0.707106829 0 0.707106829
  outer loop
  vertex 279.678406 15.1554441 -73.875
  vertex 273.553406 17.5 -80
  vertex 281.427551 13.4057779 -72.1258545
  endloop
 endfacet

 facet normal -0.707107663 4.66190522e-06 0.707105994
  outer loop
  vertex 285.064636 5.98535252 -68.4887619
  vertex 273.553406 3.17499995 -80
  vertex 283.653381 3.17499995 -69.9000015
  endloop
 endfacet

 facet normal -0.707109392 -8.80782045e-06 0.707104266
  outer loop
  vertex 279.172119 9.38128185 -74.381279
  vertex 278.553406 9.125 -75
  vertex 285.064636 5.98535252 -68.4887619
  endloop
 endfacet

 facet normal -0.707105875 -2.21465029e-06 0.707107723
  outer loop
  vertex 279.172119 -10.6187181 -74.381279
  vertex 273.553406 -17.5 -80
  vertex 285.064636 -5.98535252 -68.4887619
  endloop
 endfacet

 facet normal -0.707113147 9.57341581e-06 0.707100511
  outer loop
  vertex 278.553406 -10.875 -75
  vertex 273.553406 -17.5 -80
  vertex 279.172119 -10.6187181 -74.381279
  endloop
 endfacet

 facet normal -0.707096815 -1.50473206e-05 0.707116783
  outer loop
  vertex 277.934662 -10.6187181 -75.618721
  vertex 273.553406 -17.5 -80
  vertex 278.553406 -10.875 -75
  endloop
 endfacet

 facet normal -0.707105756 -3.94925746e-06 0.707107842
  outer loop
  vertex 282.937439 -11.2487831 -70.6159592
  vertex 273.553406 -17.5 -80
  vertex 281.427551 -13.4057779 -72.1258545
  endloop
 endfacet

 facet normal -0.707106829 -2.38901166e-08 0.707106829
  outer loop
  vertex 281.427551 -13.4057779 -72.1258545
  vertex 273.553406 -17.5 -80
  vertex 279.678406 -15.1554441 -73.875
  endloop
 endfacet

 facet normal -0.707110584 1.96751644e-05 0.707103014
  outer loop
  vertex 279.678406 -15.1554441 -73.875
  vertex 273.553406 -17.5 -80
  vertex 277.743134 -16.4446201 -75.810257
  endloop
 endfacet

 facet normal -0.70701021 -0.000107004729 0.707203448
  outer loop
  vertex 273.553406 -17.5 -80
  vertex 277.678406 -10 -75.875
  vertex 277.934662 -9.38128185 -75.618721
  endloop
 endfacet

 facet normal -0.707104802 7.03264004e-06 0.707108855
  outer loop
  vertex 279.172119 9.38128185 -74.381279
  vertex 285.064636 5.98535252 -68.4887619
  vertex 279.428406 10 -74.125
  endloop
 endfacet

 facet normal -0.707099736 4.46531067e-06 0.707113862
  outer loop
  vertex 283.653381 3.17499995 -69.9000015
  vertex 285.617279 -3.03884315 -67.9361038
  vertex 285.803406 0 -67.75
  endloop
 endfacet

 facet normal -0.707107008 -5.34879928e-06 0.70710659
  outer loop
  vertex 285.803406 0 -67.75
  vertex 285.617279 3.03884315 -67.9361038
  vertex 283.653381 3.17499995 -69.9000015
  endloop
 endfacet

 facet normal -0.707106709 3.71306396e-06 0.707106888
  outer loop
  vertex 285.064636 5.98535252 -68.4887619
  vertex 283.653381 3.17499995 -69.9000015
  vertex 285.617279 3.03884315 -67.9361038
  endloop
 endfacet

 facet normal -0.707108617 -3.12293105e-06 0.707105041
  outer loop
  vertex 284.162201 8.75 -69.3911896
  vertex 273.553406 17.5 -80
  vertex 285.064636 5.98535252 -68.4887619
  endloop
 endfacet

 facet normal -0.707105994 2.11029601e-06 0.707107663
  outer loop
  vertex 285.064636 5.98535252 -68.4887619
  vertex 273.553406 17.5 -80
  vertex 279.172119 10.6187181 -74.381279
  endloop
 endfacet

 facet normal -0.707111895 1.2919324e-05 0.707101762
  outer loop
  vertex 279.172119 -10.6187181 -74.381279
  vertex 285.064636 -5.98535252 -68.4887619
  vertex 279.428406 -10 -74.125
  endloop
 endfacet

 facet normal -0.707103789 -6.17286514e-06 0.707109809
  outer loop
  vertex 279.428406 -10 -74.125
  vertex 283.653381 -3.17499995 -69.9000015
  vertex 279.172119 -9.38128185 -74.381279
  endloop
 endfacet

 facet normal -0.707108617 0 0.707104981
  outer loop
  vertex 273.553406 -3.17499995 -80
  vertex 273.553406 -17.5 -80
  vertex 277.934662 -9.38128185 -75.618721
  endloop
 endfacet

 facet normal -0.707108617 2.04346962e-09 0.707104981
  outer loop
  vertex 277.934662 9.38128185 -75.618721
  vertex 273.553406 17.5 -80
  vertex 273.553406 3.17499995 -80
  endloop
 endfacet

endsolid AssimpScene
